<svg width="324" height="978" viewBox="0 0 324 978" fill="none" xmlns="http://www.w3.org/2000/svg">
<g opacity="0.6">
<mask id="mask0_237_11361" style="mask-type:alpha" maskUnits="userSpaceOnUse" x="-349" y="-768" width="673" height="1746">
<path d="M323.417 881.599L296.087 928.937L323.417 976.274L323.417 977.394L211.51 977.394L267.464 880.484L323.417 880.484L323.417 881.599ZM212.475 976.837L266.49 976.837L239.484 930.061L212.475 976.837ZM240.458 929.499L267.788 976.837L322.453 976.837L295.118 929.499L240.458 929.499ZM240.449 928.379L294.478 928.379L267.464 881.589L240.449 928.379ZM268.428 881.042L295.443 927.817L322.448 881.042L268.428 881.042Z" fill="#C4AB6E"/>
<path d="M323.417 687.77L296.087 735.108L323.417 782.446L323.417 784.684L296.087 832.022L323.417 879.345L323.417 880.474L267.464 880.474L211.51 783.565L267.464 686.656L323.417 686.656L323.417 687.77ZM322.443 879.917L295.438 833.141L268.423 879.917L322.443 879.917ZM240.458 832.579L267.464 879.355L294.478 832.579L240.458 832.579ZM212.475 784.122L239.489 830.898L266.494 784.122L212.475 784.122ZM267.788 784.122L240.458 831.46L295.118 831.46L322.458 784.122L267.788 784.122ZM212.475 783.003L266.49 783.003L239.484 736.227L212.475 783.003ZM240.458 735.67L267.788 783.008L322.453 783.008L295.113 735.67L240.458 735.67ZM240.449 734.551L294.478 734.551L267.464 687.761L240.449 734.551ZM268.428 687.213L295.443 733.989L322.448 687.213L268.428 687.213Z" fill="#C4AB6E"/>
<path d="M323.417 493.942L296.087 541.28L323.417 588.618L323.417 590.857L296.087 638.194L323.417 685.518L323.417 686.647L267.464 686.647L211.51 589.737L267.464 492.823L323.417 492.823L323.417 493.942ZM322.443 686.089L295.438 639.314L268.423 686.089L322.443 686.089ZM240.458 638.752L267.464 685.527L294.478 638.752L240.458 638.752ZM212.475 590.295L239.489 637.07L266.494 590.295L212.475 590.295ZM267.788 590.295L240.458 637.632L295.118 637.632L322.458 590.295L267.788 590.295ZM212.475 589.175L266.49 589.175L239.484 542.4L212.475 589.175ZM240.458 541.842L267.788 589.18L322.453 589.18L295.113 541.842L240.458 541.842ZM240.449 540.723L294.478 540.723L267.464 493.933L240.449 540.723ZM268.428 493.385L295.443 540.161L322.448 493.385L268.428 493.385Z" fill="#C4AB6E"/>
<path d="M323.417 397.029L296.087 444.367L323.417 491.69L323.417 492.819L267.464 492.819L211.51 395.91L323.417 395.91L323.417 397.029ZM322.443 492.262L295.438 445.486L268.423 492.262L322.443 492.262ZM240.458 444.924L267.464 491.7L294.478 444.924L240.458 444.924ZM212.475 396.467L239.489 443.243L266.494 396.467L212.475 396.467ZM267.788 396.467L240.458 443.805L295.118 443.805L322.458 396.467L267.788 396.467Z" fill="#C4AB6E"/>
<path d="M267.463 880.48L211.509 977.394L99.6027 977.394L43.6493 880.48L99.6027 783.565L211.51 783.565L267.463 880.48ZM155.556 879.365L182.886 832.027L155.556 784.69L128.226 832.027L155.556 879.365ZM128.226 928.932L155.556 976.26L182.886 928.932L155.556 881.594L128.226 928.932ZM238.519 831.465L211.51 784.685L184.5 831.465L238.519 831.465ZM183.85 832.585L156.52 879.922L211.18 879.922L238.51 832.585L183.85 832.585ZM156.52 881.037L183.85 928.375L238.51 928.375L211.18 881.037L156.52 881.037ZM184.5 929.494L211.509 976.279L238.519 929.499L184.5 929.499L184.5 929.494ZM183.535 930.056L156.525 976.832L210.54 976.832L183.535 930.056ZM127.577 930.051L100.567 976.832L154.587 976.832L127.577 930.051ZM126.613 929.494L72.5927 929.494L99.6027 976.274L126.613 929.494ZM127.257 928.375L154.587 881.037L99.9274 881.037L72.5976 928.375L127.257 928.375ZM154.592 879.922L127.262 832.585L72.6024 832.585L99.9322 879.922L154.592 879.922ZM126.613 831.465L99.6027 784.685L72.5927 831.465L126.613 831.465ZM127.577 830.903L154.587 784.123L100.572 784.123L127.577 830.903ZM183.535 830.903L210.545 784.123L156.53 784.123L183.535 830.903ZM212.479 879.922L266.494 879.922L239.484 833.142L212.479 879.922ZM266.494 881.037L212.479 881.037L239.484 927.817L266.494 881.037ZM98.6287 881.037L44.6136 881.037L71.6236 927.817L98.6287 881.037ZM44.6136 879.922L98.6287 879.922L71.6236 833.142L44.6136 879.922Z" fill="#C4AB6E"/>
<path d="M267.463 686.651L211.509 783.566L99.6027 783.566L43.6493 686.651L99.6027 589.737L211.51 589.737L267.463 686.651ZM155.556 685.537L182.886 638.199L155.556 590.861L128.226 638.199L155.556 685.537ZM128.226 735.104L155.556 782.432L182.886 735.104L155.556 687.766L128.226 735.104ZM238.519 637.637L211.51 590.857L184.5 637.637L238.519 637.637ZM183.85 638.756L156.52 686.094L211.18 686.094L238.51 638.756L183.85 638.756ZM156.52 687.209L183.85 734.546L238.51 734.546L211.18 687.209L156.52 687.209ZM184.5 735.666L211.509 782.446L238.519 735.666L184.5 735.666ZM183.535 736.228L156.525 783.008L210.54 783.008L183.535 736.228ZM127.577 736.228L100.567 783.008L154.587 783.008L127.577 736.228ZM126.613 735.666L72.5927 735.666L99.6027 782.446L126.613 735.666ZM127.257 734.546L154.587 687.209L99.9274 687.209L72.5976 734.546L127.257 734.546ZM154.592 686.094L127.262 638.756L72.6024 638.756L99.9322 686.094L154.592 686.094ZM126.613 637.637L99.6027 590.852L72.5927 637.637L126.613 637.637ZM127.577 637.075L154.587 590.294L100.572 590.294L127.577 637.075ZM183.535 637.075L210.545 590.294L156.53 590.294L183.535 637.075ZM212.479 686.094L266.494 686.094L239.484 639.314L212.479 686.094ZM266.494 687.209L212.479 687.209L239.484 733.989L266.494 687.209ZM98.6287 687.209L44.6136 687.209L71.6236 733.989L98.6287 687.209ZM44.6136 686.094L98.6287 686.094L71.6236 639.314L44.6136 686.094Z" fill="#C4AB6E"/>
<path d="M267.463 492.823L211.509 589.737L99.6027 589.737L43.6493 492.823L99.6027 395.909L211.51 395.909L267.463 492.823ZM155.556 491.709L182.886 444.371L155.556 397.033L128.226 444.371L155.556 491.709ZM128.226 541.275L155.556 588.603L182.886 541.275L155.556 493.938L128.226 541.275ZM238.519 443.809L211.51 397.028L184.5 443.809L238.519 443.809ZM183.85 444.928L156.52 492.266L211.18 492.266L238.51 444.928L183.85 444.928ZM156.52 493.38L183.85 540.718L238.51 540.718L211.18 493.38L156.52 493.38ZM184.5 541.837L211.509 588.618L238.519 541.837L184.5 541.837ZM183.535 542.399L156.525 589.18L210.54 589.18L183.535 542.399ZM127.577 542.399L100.567 589.18L154.587 589.18L127.577 542.399ZM126.613 541.837L72.5927 541.837L99.6027 588.618L126.613 541.837ZM127.257 540.718L154.587 493.38L99.9274 493.38L72.5976 540.718L127.257 540.718ZM154.592 492.266L127.262 444.928L72.6024 444.928L99.9322 492.266L154.592 492.266ZM126.613 443.809L99.6027 397.023L72.5927 443.809L126.613 443.809ZM127.577 443.251L154.587 396.471L100.572 396.471L127.577 443.251ZM183.535 443.247L210.545 396.466L156.53 396.466L183.535 443.247ZM212.479 492.266L266.494 492.266L239.484 445.485L212.479 492.266ZM266.494 493.38L212.479 493.38L239.484 540.161L266.494 493.38ZM98.6287 493.38L44.6136 493.38L71.6236 540.161L98.6287 493.38ZM44.6136 492.266L98.6287 492.266L71.6236 445.485L44.6136 492.266Z" fill="#C4AB6E"/>
<path d="M99.6035 977.394L-124.21 977.394L-68.2566 880.484L43.6501 880.484L99.6035 977.394ZM70.665 928.379L43.6501 881.604L16.6353 928.379L70.665 928.379ZM98.6392 976.837L71.6244 930.061L44.6241 976.837L98.6392 976.837ZM43.3255 976.837L70.6553 929.499L16.0005 929.499L-11.3438 976.837L43.3255 976.837ZM-123.251 976.837L-69.2307 976.837L-96.2358 930.061L-123.251 976.837ZM-95.2618 929.499L-67.932 976.837L-13.2676 976.837L-40.607 929.499L-95.2618 929.499ZM-12.3033 976.274L15.0265 928.937L-12.3033 881.599L-39.6331 928.937L-12.3033 976.274ZM-95.2715 928.379L-41.2418 928.379L-68.2566 881.589L-95.2715 928.379ZM-67.2972 881.042L-40.2824 927.817L-13.2773 881.042L-67.2972 881.042ZM-11.3293 881.042L15.6758 927.817L42.6907 881.042L-11.3293 881.042Z" fill="#C4AB6E"/>
<path d="M99.6035 783.565L43.6501 880.479L-68.2567 880.479L-124.21 783.565L-68.2566 686.651L43.6501 686.651L99.6035 783.565ZM-12.3033 782.45L15.0265 735.113L-12.3033 687.775L-39.6331 735.113L-12.3033 782.45ZM-39.6331 832.017L-12.3033 879.345L15.0265 832.017L-12.3033 784.679L-39.6331 832.017ZM70.6601 734.551L43.6501 687.77L16.6401 734.551L70.6601 734.551ZM15.9908 735.67L-11.339 783.008L43.3206 783.008L70.6504 735.67L15.9908 735.67ZM-11.339 784.122L15.9908 831.46L70.6504 831.46L43.3206 784.122L-11.339 784.122ZM16.6401 832.579L43.6501 879.36L70.6601 832.579L16.6401 832.579ZM15.6758 833.141L-11.3341 879.922L42.681 879.922L15.6758 833.141ZM-40.2824 833.141L-67.2924 879.922L-13.2773 879.922L-40.2824 833.141ZM-41.2467 832.579L-95.2667 832.579L-68.2567 879.36L-41.2467 832.579ZM-40.6022 831.46L-13.2724 784.122L-67.932 784.122L-95.2618 831.46L-40.6022 831.46ZM-13.2724 783.008L-40.6022 735.67L-95.2618 735.67L-67.932 783.008L-13.2724 783.008ZM-41.2467 734.551L-68.2566 687.765L-95.2667 734.551L-41.2467 734.551ZM-40.2824 733.993L-13.2724 687.213L-67.2923 687.213L-40.2824 733.993ZM15.6758 733.989L42.6858 687.208L-11.3293 687.208L15.6758 733.989ZM44.6193 783.008L98.6344 783.008L71.6244 736.227L44.6193 783.008ZM98.6344 784.122L44.6193 784.122L71.6244 830.903L98.6344 784.122ZM-69.2306 784.122L-123.246 784.122L-96.2358 830.903L-69.2306 784.122ZM-123.246 783.008L-69.2306 783.008L-96.2358 736.227L-123.246 783.008Z" fill="#C4AB6E"/>
<path d="M99.6035 589.737L43.6501 686.651L-68.2567 686.651L-124.21 589.737L-68.2566 492.822L43.6501 492.822L99.6035 589.737ZM-12.3033 588.622L15.0265 541.284L-12.3033 493.947L-39.6331 541.284L-12.3033 588.622ZM-39.6331 638.189L-12.3033 685.517L15.0265 638.189L-12.3033 590.851L-39.6331 638.189ZM70.6601 540.722L43.6501 493.942L16.6401 540.722L70.6601 540.722ZM15.9908 541.842L-11.339 589.179L43.3206 589.179L70.6504 541.842L15.9908 541.842ZM-11.339 590.294L15.9908 637.632L70.6504 637.632L43.3206 590.294L-11.339 590.294ZM16.6401 638.751L43.6501 685.531L70.6601 638.751L16.6401 638.751ZM15.6758 639.313L-11.3341 686.093L42.681 686.093L15.6758 639.313ZM-40.2824 639.313L-67.2924 686.093L-13.2773 686.093L-40.2824 639.313ZM-41.2467 638.751L-95.2667 638.751L-68.2567 685.531L-41.2467 638.751ZM-40.6022 637.632L-13.2724 590.294L-67.932 590.294L-95.2618 637.632L-40.6022 637.632ZM-13.2724 589.179L-40.6022 541.842L-95.2618 541.842L-67.932 589.179L-13.2724 589.179ZM-41.2467 540.722L-68.2566 493.937L-95.2667 540.722L-41.2467 540.722ZM-40.2824 540.165L-13.2724 493.385L-67.2923 493.385L-40.2824 540.165ZM15.6758 540.16L42.6858 493.38L-11.3293 493.38L15.6758 540.16ZM44.6193 589.179L98.6344 589.179L71.6244 542.399L44.6193 589.179ZM98.6344 590.294L44.6193 590.294L71.6244 637.074L98.6344 590.294ZM-69.2306 590.294L-123.246 590.294L-96.2358 637.074L-69.2306 590.294ZM-123.246 589.179L-69.2306 589.179L-96.2358 542.399L-123.246 589.179Z" fill="#C4AB6E"/>
<path d="M43.6501 492.819L-68.2567 492.819L-124.21 395.91L99.6035 395.91L43.6501 492.819ZM70.6504 444.924L16.6353 444.924L43.6501 491.7L70.6504 444.924ZM42.6858 492.262L15.671 445.486L-11.3341 492.262L42.6858 492.262ZM-13.2773 492.262L-40.2824 445.486L-67.2972 492.262L-13.2773 492.262ZM-95.2618 444.924L-68.2567 491.7L-41.2418 444.924L-95.2618 444.924ZM-12.3033 491.69L15.0265 444.367L-12.3033 397.029L-39.6331 444.367L-12.3033 491.69ZM-123.251 396.467L-96.2358 443.243L-69.2306 396.467L-123.251 396.467ZM-67.932 396.467L-95.2618 443.805L-40.607 443.805L-13.2676 396.467L-67.932 396.467ZM-11.3438 396.467L15.9957 443.805L70.6504 443.805L43.3206 396.467L-11.3438 396.467ZM44.6241 396.467L71.6293 443.243L98.6441 396.467L44.6241 396.467Z" fill="#C4AB6E"/>
<path d="M323.417 300.114L296.087 347.452L323.417 394.79L323.417 395.909L211.51 395.909L267.464 299L323.417 299L323.417 300.114ZM212.475 395.352L266.49 395.352L239.484 348.576L212.475 395.352ZM240.458 348.014L267.788 395.352L322.453 395.352L295.118 348.014L240.458 348.014ZM240.449 346.895L294.478 346.895L267.464 300.104L240.449 346.895ZM268.428 299.557L295.443 346.332L322.448 299.557L268.428 299.557Z" fill="#C4AB6E"/>
<path d="M323.417 106.286L296.087 153.624L323.417 200.961L323.417 203.2L296.087 250.538L323.417 297.861L323.417 298.99L267.464 298.99L211.51 202.081L267.464 105.171L323.417 105.171L323.417 106.286ZM322.443 298.433L295.438 251.657L268.423 298.433L322.443 298.433ZM240.458 251.095L267.464 297.871L294.478 251.095L240.458 251.095ZM212.475 202.638L239.489 249.414L266.494 202.638L212.475 202.638ZM267.788 202.638L240.458 249.976L295.118 249.976L322.458 202.638L267.788 202.638ZM212.475 201.519L266.49 201.519L239.484 154.743L212.475 201.519ZM240.458 154.186L267.788 201.523L322.453 201.523L295.113 154.186L240.458 154.186ZM240.449 153.066L294.478 153.066L267.464 106.276L240.449 153.066ZM268.428 105.729L295.443 152.504L322.448 105.729L268.428 105.729Z" fill="#C4AB6E"/>
<path d="M323.417 -87.5435L296.087 -40.2058L323.417 7.13197L323.417 9.37069L296.087 56.7084L323.417 104.032L323.417 105.161L267.464 105.161L211.51 8.25132L267.464 -88.6628L323.417 -88.6628L323.417 -87.5435ZM322.443 104.603L295.438 57.8278L268.423 104.603L322.443 104.603ZM240.458 57.2657L267.464 104.041L294.478 57.2657L240.458 57.2657ZM212.475 8.80859L239.489 55.5842L266.494 8.80859L212.475 8.80859ZM267.788 8.80859L240.458 56.1463L295.118 56.1463L322.458 8.80859L267.788 8.80859ZM212.475 7.68923L266.49 7.68924L239.484 -39.0864L212.475 7.68923ZM240.458 -39.6437L267.788 7.69406L322.453 7.69406L295.113 -39.6437L240.458 -39.6437ZM240.449 -40.763L294.478 -40.763L267.464 -87.5532L240.449 -40.763ZM268.428 -88.1008L295.443 -41.3251L322.448 -88.1008L268.428 -88.1008Z" fill="#C4AB6E"/>
<path d="M267.463 298.995L211.509 395.909L99.6027 395.909L43.6493 298.995L99.6027 202.081L211.51 202.081L267.463 298.995ZM155.556 297.88L182.886 250.543L155.556 203.205L128.226 250.543L155.556 297.88ZM128.226 347.447L155.556 394.775L182.886 347.447L155.556 300.109L128.226 347.447ZM238.519 249.98L211.51 203.2L184.5 249.98L238.519 249.98ZM183.85 251.1L156.52 298.438L211.18 298.438L238.51 251.1L183.85 251.1ZM156.52 299.552L183.85 346.89L238.51 346.89L211.18 299.552L156.52 299.552ZM184.5 348.009L211.509 394.794L238.519 348.014L184.5 348.014L184.5 348.009ZM183.535 348.571L156.525 395.347L210.54 395.347L183.535 348.571ZM127.577 348.566L100.567 395.347L154.587 395.347L127.577 348.566ZM126.613 348.009L72.5927 348.009L99.6027 394.79L126.613 348.009ZM127.257 346.89L154.587 299.552L99.9274 299.552L72.5976 346.89L127.257 346.89ZM154.592 298.438L127.262 251.1L72.6024 251.1L99.9322 298.438L154.592 298.438ZM126.613 249.98L99.6027 203.2L72.5927 249.98L126.613 249.98ZM127.577 249.418L154.587 202.638L100.572 202.638L127.577 249.418ZM183.535 249.418L210.545 202.638L156.53 202.638L183.535 249.418ZM212.479 298.438L266.494 298.438L239.484 251.657L212.479 298.438ZM266.494 299.552L212.479 299.552L239.484 346.332L266.494 299.552ZM98.6287 299.552L44.6136 299.552L71.6236 346.332L98.6287 299.552ZM44.6136 298.438L98.6287 298.438L71.6236 251.657L44.6136 298.438Z" fill="#C4AB6E"/>
<path d="M267.463 105.166L211.509 202.081L99.6027 202.081L43.6493 105.166L99.6027 8.25224L211.51 8.25224L267.463 105.166ZM155.556 104.052L182.886 56.7142L155.556 9.37644L128.226 56.7142L155.556 104.052ZM128.226 153.619L155.556 200.947L182.886 153.619L155.556 106.281L128.226 153.619ZM238.519 56.1521L211.51 9.37159L184.5 56.1521L238.519 56.1521ZM183.85 57.2714L156.52 104.609L211.18 104.609L238.51 57.2714L183.85 57.2714ZM156.52 105.724L183.85 153.061L238.51 153.061L211.18 105.724L156.52 105.724ZM184.5 154.181L211.509 200.961L238.519 154.181L184.5 154.181ZM183.535 154.743L156.525 201.523L210.54 201.523L183.535 154.743ZM127.577 154.743L100.567 201.523L154.587 201.523L127.577 154.743ZM126.613 154.181L72.5927 154.181L99.6027 200.961L126.613 154.181ZM127.257 153.061L154.587 105.724L99.9274 105.724L72.5976 153.061L127.257 153.061ZM154.592 104.609L127.262 57.2714L72.6024 57.2714L99.9322 104.609L154.592 104.609ZM126.613 56.152L99.6027 9.36675L72.5927 56.152L126.613 56.152ZM127.577 55.59L154.587 8.8095L100.572 8.8095L127.577 55.59ZM183.535 55.59L210.545 8.80951L156.53 8.8095L183.535 55.59ZM212.479 104.609L266.494 104.609L239.484 57.8287L212.479 104.609ZM266.494 105.724L212.479 105.724L239.484 152.504L266.494 105.724ZM98.6287 105.724L44.6136 105.724L71.6236 152.504L98.6287 105.724ZM44.6136 104.609L98.6287 104.609L71.6236 57.8287L44.6136 104.609Z" fill="#C4AB6E"/>
<path d="M267.463 -88.6617L211.509 8.25244L99.6027 8.25243L43.6493 -88.6617L99.6027 -185.576L211.51 -185.576L267.463 -88.6617ZM155.556 -89.7762L182.886 -137.114L155.556 -184.452L128.226 -137.114L155.556 -89.7762ZM128.226 -40.2095L155.556 7.11853L182.886 -40.2095L155.556 -87.5472L128.226 -40.2095ZM238.519 -137.676L211.51 -184.456L184.5 -137.676L238.519 -137.676ZM183.85 -136.557L156.52 -89.219L211.18 -89.219L238.51 -136.557L183.85 -136.557ZM156.52 -88.1045L183.85 -40.7667L238.51 -40.7667L211.18 -88.1045L156.52 -88.1045ZM184.5 -39.6474L211.509 7.13308L238.519 -39.6474L184.5 -39.6474ZM183.535 -39.0853L156.525 7.69517L210.54 7.69517L183.535 -39.0853ZM127.577 -39.0853L100.567 7.69517L154.587 7.69517L127.577 -39.0853ZM126.613 -39.6474L72.5927 -39.6474L99.6027 7.13308L126.613 -39.6474ZM127.257 -40.7667L154.587 -88.1045L99.9274 -88.1045L72.5976 -40.7667L127.257 -40.7667ZM154.592 -89.219L127.262 -136.557L72.6024 -136.557L99.9322 -89.219L154.592 -89.219ZM126.613 -137.676L99.6027 -184.461L72.5927 -137.676L126.613 -137.676ZM127.577 -138.233L154.587 -185.014L100.572 -185.014L127.577 -138.233ZM183.535 -138.238L210.545 -185.019L156.53 -185.019L183.535 -138.238ZM212.479 -89.219L266.494 -89.219L239.484 -135.999L212.479 -89.219ZM266.494 -88.1045L212.479 -88.1045L239.484 -41.324L266.494 -88.1045ZM98.6287 -88.1045L44.6136 -88.1045L71.6236 -41.324L98.6287 -88.1045ZM44.6136 -89.219L98.6287 -89.219L71.6236 -135.999L44.6136 -89.219Z" fill="#C4AB6E"/>
<path d="M99.6035 395.909L-124.21 395.909L-68.2566 299L43.6501 299L99.6035 395.909ZM70.665 346.895L43.6501 300.119L16.6353 346.895L70.665 346.895ZM98.6392 395.352L71.6244 348.576L44.6241 395.352L98.6392 395.352ZM43.3255 395.352L70.6553 348.014L16.0005 348.014L-11.3438 395.352L43.3255 395.352ZM-123.251 395.352L-69.2307 395.352L-96.2358 348.576L-123.251 395.352ZM-95.2618 348.014L-67.932 395.352L-13.2676 395.352L-40.607 348.014L-95.2618 348.014ZM-12.3033 394.79L15.0265 347.452L-12.3033 300.114L-39.6331 347.452L-12.3033 394.79ZM-95.2715 346.895L-41.2418 346.895L-68.2566 300.104L-95.2715 346.895ZM-67.2972 299.557L-40.2824 346.332L-13.2773 299.557L-67.2972 299.557ZM-11.3293 299.557L15.6758 346.332L42.6907 299.557L-11.3293 299.557Z" fill="#C4AB6E"/>
<path d="M99.6035 202.081L43.6501 298.995L-68.2567 298.995L-124.21 202.081L-68.2566 105.167L43.6501 105.167L99.6035 202.081ZM-12.3033 200.966L15.0265 153.628L-12.3033 106.291L-39.6331 153.628L-12.3033 200.966ZM-39.6331 250.533L-12.3033 297.861L15.0265 250.533L-12.3033 203.195L-39.6331 250.533ZM70.6601 153.066L43.6501 106.286L16.6401 153.066L70.6601 153.066ZM15.9908 154.186L-11.339 201.523L43.3206 201.523L70.6504 154.186L15.9908 154.186ZM-11.339 202.638L15.9908 249.976L70.6504 249.976L43.3206 202.638L-11.339 202.638ZM16.6401 251.095L43.6501 297.876L70.6601 251.095L16.6401 251.095ZM15.6758 251.657L-11.3341 298.438L42.681 298.438L15.6758 251.657ZM-40.2824 251.657L-67.2924 298.438L-13.2773 298.438L-40.2824 251.657ZM-41.2467 251.095L-95.2667 251.095L-68.2567 297.876L-41.2467 251.095ZM-40.6022 249.976L-13.2724 202.638L-67.932 202.638L-95.2618 249.976L-40.6022 249.976ZM-13.2724 201.523L-40.6022 154.186L-95.2618 154.186L-67.932 201.523L-13.2724 201.523ZM-41.2467 153.066L-68.2566 106.281L-95.2667 153.066L-41.2467 153.066ZM-40.2824 152.509L-13.2724 105.729L-67.2923 105.729L-40.2824 152.509ZM15.6758 152.504L42.6858 105.724L-11.3293 105.724L15.6758 152.504ZM44.6193 201.523L98.6344 201.523L71.6244 154.743L44.6193 201.523ZM98.6344 202.638L44.6193 202.638L71.6244 249.418L98.6344 202.638ZM-69.2306 202.638L-123.246 202.638L-96.2358 249.418L-69.2306 202.638ZM-123.246 201.523L-69.2306 201.523L-96.2358 154.743L-123.246 201.523Z" fill="#C4AB6E"/>
<path d="M99.6035 8.25112L43.6501 105.165L-68.2567 105.165L-124.21 8.25111L-68.2566 -88.663L43.6501 -88.663L99.6035 8.25112ZM-12.3033 7.13661L15.0265 -40.2011L-12.3033 -87.5388L-39.6331 -40.2011L-12.3033 7.13661ZM-39.6331 56.7033L-12.3033 104.031L15.0265 56.7034L-12.3033 9.36563L-39.6331 56.7033ZM70.6601 -40.7632L43.6501 -87.5437L16.6401 -40.7632L70.6601 -40.7632ZM15.9908 -39.6439L-11.339 7.69385L43.3206 7.69385L70.6504 -39.6439L15.9908 -39.6439ZM-11.339 8.80838L15.9908 56.1461L70.6504 56.1461L43.3206 8.80839L-11.339 8.80838ZM16.6401 57.2655L43.6501 104.046L70.6601 57.2655L16.6401 57.2655ZM15.6758 57.8276L-11.3341 104.608L42.681 104.608L15.6758 57.8276ZM-40.2824 57.8276L-67.2924 104.608L-13.2773 104.608L-40.2824 57.8276ZM-41.2467 57.2655L-95.2667 57.2655L-68.2567 104.046L-41.2467 57.2655ZM-40.6022 56.1461L-13.2724 8.80838L-67.932 8.80838L-95.2618 56.1461L-40.6022 56.1461ZM-13.2724 7.69385L-40.6022 -39.6439L-95.2618 -39.6439L-67.932 7.69385L-13.2724 7.69385ZM-41.2467 -40.7632L-68.2566 -87.5485L-95.2667 -40.7632L-41.2467 -40.7632ZM-40.2824 -41.3205L-13.2724 -88.101L-67.2923 -88.101L-40.2824 -41.3205ZM15.6758 -41.3253L42.6858 -88.1058L-11.3293 -88.1058L15.6758 -41.3253ZM44.6193 7.69385L98.6344 7.69386L71.6244 -39.0866L44.6193 7.69385ZM98.6344 8.80839L44.6193 8.80839L71.6244 55.5888L98.6344 8.80839ZM-69.2306 8.80838L-123.246 8.80838L-96.2358 55.5888L-69.2306 8.80838ZM-123.246 7.69385L-69.2306 7.69385L-96.2358 -39.0866L-123.246 7.69385Z" fill="#C4AB6E"/>
</mask>
<g mask="url(#mask0_237_11361)">
<rect width="1530.5" height="579.066" transform="matrix(4.37114e-08 1 1 -4.37114e-08 -255.649 -559.761)" fill="url(#paint0_linear_237_11361)"/>
</g>
</g>
<defs>
<linearGradient id="paint0_linear_237_11361" x1="765.251" y1="-225.937" x2="765.251" y2="579.066" gradientUnits="userSpaceOnUse">
<stop stop-color="#DBC27D"/>
<stop offset="1" stop-color="#DBC27D" stop-opacity="0"/>
</linearGradient>
</defs>
</svg>
