<svg xmlns="http://www.w3.org/2000/svg" width="146" height="17" fill="none" viewBox="0 0 146 17">
    <g clip-path="url(#a)">
        <path fill="#fff" d="M12.17.139c.223 0 .548.021.975.046 1.185.06 1.993.09 2.416.09.535 0 1.488-.034 2.87-.102l.71-.034v1.029h-.27c-.664 0-1.11.16-1.338.483-.228.322-.347 1.177-.355 2.566v3.028l1.924.05h3.832l2.394-.05V4.217c0-1.39-.115-2.244-.346-2.566-.244-.322-.693-.483-1.364-.483h-.265V.138a64.56 64.56 0 0 0 2 .103c.591.025 1.117.033 1.587.033s1.22-.03 2.408-.089c.428-.025.74-.038.97-.046v1.029h-.384a1.294 1.294 0 0 0-1.24.589c-.214.393-.325 1.27-.325 2.617v8.232c0 1.202.11 1.982.337 2.346a1.37 1.37 0 0 0 1.283.542H30.404v1.041l-1.112-.059a74.39 74.39 0 0 0-2.377-.08c-.394 0-.967 0-1.582.038-.616.038-1.322.055-2.117.101v-1.084H23.643c.668 0 1.112-.169 1.339-.516.227-.348.342-1.228.342-2.651V9.01l-2.138-.038H18.76c-.56 0-1.082.022-1.57.038v3.295c0 1.412.115 2.295.343 2.65.226.348.675.518 1.338.518H19.3v1.041c-.804-.045-1.517-.079-2.138-.101a38.928 38.928 0 0 0-1.561-.038c-.424 0-1.198.03-2.386.08l-1.12.06V15.45H12.541a1.294 1.294 0 0 0 1.258-.601c.216-.404.326-1.269.329-2.596v-1.27-3.93-1.626-1.325c0-1.224-.111-2.02-.338-2.397a1.294 1.294 0 0 0-1.236-.538h-.385V.138zM41.093.139v1.029h-.381a1.445 1.445 0 0 0-1.33.567c-.23.379-.346 1.34-.346 2.884V7.24c0 1.546.025 2.639.077 3.287.032.518.125 1.031.278 1.528a3.814 3.814 0 0 0 1.552 2.092 4.863 4.863 0 0 0 2.732.728 5.322 5.322 0 0 0 2.267-.423c.63-.31 1.16-.79 1.526-1.385.291-.487.482-1.027.56-1.588.132-.967.187-1.942.167-2.917v-1.22V4.801c0-1.609-.116-2.621-.35-3.036a1.394 1.394 0 0 0-1.347-.597h-.381V.138c.719.039 1.313.069 1.788.086.474.017.88.03 1.223.03.342 0 .697 0 1.15-.03.453-.03 1.04-.047 1.766-.085v1.029h-.188a2.628 2.628 0 0 0-1.03.157.935.935 0 0 0-.484.542c-.148.384-.24 2.046-.278 4.988V8.46c-.017 2.614-.302 4.41-.855 5.386a5.601 5.601 0 0 1-2.455 2.27 8.429 8.429 0 0 1-3.771.8 8.963 8.963 0 0 1-3.515-.647 5.468 5.468 0 0 1-2.17-1.534 5.395 5.395 0 0 1-1.179-2.367 16.077 16.077 0 0 1-.278-3.485c0-.423 0-1.147.035-2.202.034-1.054.034-1.897.034-2.54 0-1.338-.11-2.17-.33-2.495-.218-.321-.654-.487-1.282-.487h-.274V.14c.855.038 1.578.068 2.138.085.56.017 1.014.03 1.407.03s.817 0 1.364-.03l2.16-.085zM55.164.16c.29 0 .752.03 1.38.064.63.034 1.079.05 1.348.05.27 0 .658 0 1.257-.05.599-.051 1.04-.055 1.326-.064.124.317.283.62.474.902.253.373.527.73.822 1.071l8.505 9.935c0-.991 0-2.316-.034-3.976-.029-3.648-.087-5.638-.175-5.971a1.194 1.194 0 0 0-.51-.75 2.385 2.385 0 0 0-1.137-.203h-.38V.16l1.92.09c.439.016.802.024 1.09.024.338 0 .748 0 1.227-.025L74.082.16v1.008h-.21c-.37-.022-.74.036-1.086.17a.987.987 0 0 0-.5.575c-.12.367-.208 2.09-.265 5.17v.183l-.047 2.486c0 .957-.026 1.85-.035 2.689-.008.838 0 1.537 0 2.117 0 .373 0 .737.043 1.088.043.352.069.69.12 1.02h-2.267a4.506 4.506 0 0 0-.406-.656c-.175-.241-.517-.66-1.017-1.27L59.064 3.933c0 3.61.02 6.203.06 7.775-.01.929.047 1.857.17 2.778.068.31.253.583.518.762a2.3 2.3 0 0 0 1.15.212h.36v1.033c-.881-.046-1.549-.076-1.998-.093-.448-.017-.825 0-1.116 0h-1.013l-2.044.093V15.46h.474c1.104 0 1.667-1.502 1.69-4.506V9.41l.034-2.444c0-.495 0-1.207.026-2.138.025-.932.02-1.52.02-1.779 0-.74-.132-1.249-.393-1.52a1.934 1.934 0 0 0-1.41-.36h-.428V.16zM80.644 15.46h.428c.385.022.77-.035 1.133-.165.246-.117.437-.323.535-.576a6.874 6.874 0 0 0 .162-1.558c.029-.825.044-2.353.047-4.586v-6.56h-1.992c-1.21 0-2.039.168-2.49.504-.427.335-.756.983-.923 1.935l-1.09-.228c.18-.754.322-1.478.427-2.173.097-.678.157-1.36.18-2.045.403.12.82.19 1.24.212.53.042 1.433.063 2.698.063h6.94c1.426 0 2.417-.02 2.973-.063.419-.015.833-.09 1.231-.22V.35c0 .597.026 1.215.073 1.855.047.64.128 1.308.227 2.02l-1.04.16c-.134-.931-.4-1.56-.8-1.884-.398-.324-1.195-.487-2.39-.487h-2.035a262.25 262.25 0 0 0-.047 3.608c-.009 1.182 0 2.566 0 4.137v2.147c0 1.008.025 1.715.068 2.118.022.312.097.618.223.906a.973.973 0 0 0 .543.423c.34.093.691.135 1.043.123h.402v1.033l-.855-.034c-1.514-.067-2.545-.105-3.1-.105-.403 0-.92 0-1.549.038-.628.038-1.377.055-2.249.101l-.013-1.05zM95.723.114c1.312.056 2.523.097 3.635.123a139.42 139.42 0 0 0 6.509 0 71.741 71.741 0 0 0 2.749-.123c0 .666.03 1.323.09 1.97a34.2 34.2 0 0 0 .197 1.951l-1.039.136c-.112-.953-.428-1.6-.958-1.935-.53-.335-1.587-.504-3.173-.504h-1.142l-1.74.05c0 1.008-.03 1.978-.043 2.901l-.039 2.66h3.344c1.065 0 1.762-.102 2.096-.31a1.348 1.348 0 0 0 .53-1.181l.855.08c0 .386 0 .847-.034 1.44s-.034.97-.034 1.173v.792c0 .322.03.707.051 1.156l-.971.072v-.08c0-.657-.192-1.101-.573-1.33-.38-.229-1.282-.343-2.702-.343h-2.604v3.409c0 .711 0 1.567.034 2.54.346.047.782.085 1.283.11.5.026 1.086.043 1.71.043 1.845 0 3.073-.192 3.686-.576.613-.384 1.109-1.116 1.488-2.198l1.065.33a31.173 31.173 0 0 0-.654 2.097 26.681 26.681 0 0 0-.458 1.94 376.558 376.558 0 0 0-4.353-.128c-1.082-.025-2.04-.034-2.882-.034-.949 0-2.465.034-4.546.102l-1.633.06v-1.021H95.882a1.406 1.406 0 0 0 1.321-.589c.23-.392.346-1.425.346-3.1v-2.16l.026-2.54v-.512c.026-.94.034-1.584.034-1.927V3.582 2.96a2.022 2.022 0 0 0-.363-1.385 1.716 1.716 0 0 0-1.283-.39h-.265l.025-1.071zM113.433 15.485h.449a1.32 1.32 0 0 0 1.283-.618c.222-.423.329-1.503.329-3.278V9.55l.047-2.571V5.365 3.438c0-.962-.12-1.584-.355-1.868-.235-.283-.675-.423-1.325-.423h-.244V.139c.825.038 1.509.068 2.048.085.539.017 1.014.03 1.416.03.568 0 1.282 0 2.138-.06.855-.06 1.415-.055 1.71-.055 1.916 0 3.424.394 4.524 1.181a3.75 3.75 0 0 1 1.243 1.393 3.71 3.71 0 0 1 .412 1.813 3.692 3.692 0 0 1-.825 2.384 6.415 6.415 0 0 1-2.484 1.766l2.27 3.163c1.078 1.666 1.866 2.713 2.365 3.142.432.4.999.628 1.591.64h.269v.961a40.96 40.96 0 0 1-1.227.085c-.346.017-.654.03-.915.03a6.283 6.283 0 0 1-2.211-.31 3.586 3.586 0 0 1-1.437-1.067c-.201-.233-.693-1-1.479-2.287a145.178 145.178 0 0 0-2.074-3.303l-1.283.034h-1.078v3.05c0 1.168.116 1.903.346 2.206.231.304.689.453 1.369.453h.321v1.033a57.691 57.691 0 0 0-3.841-.114h-.953c-.419 0-1.232.042-2.425.097l.026-1.004zm5.183-7.232l1.043.05h1.48l.855-.05a4.305 4.305 0 0 0 1.475-1.461c.323-.588.484-1.25.466-1.919a2.987 2.987 0 0 0-.975-2.32 3.716 3.716 0 0 0-2.6-.89c-.333 0-.632 0-.906.034s-.543.055-.808.102v2.613c0 .919-.03 2.189-.03 3.84zM144.597.63v.254c0 .566.033 1.132.098 1.694.065.585.163 1.186.295 1.808l-1.205.195a3.32 3.32 0 0 0-1.117-2.248 3.875 3.875 0 0 0-2.527-.741 4.033 4.033 0 0 0-2.339.588 1.845 1.845 0 0 0-.855 1.613c-.012.422.111.837.35 1.186.28.375.649.676 1.074.877.634.3 1.29.553 1.963.758.928.305 1.62.546 2.065.72a5.274 5.274 0 0 1 2.275 1.617 3.81 3.81 0 0 1 .757 2.372 4.738 4.738 0 0 1-.473 2.229 4.788 4.788 0 0 1-1.46 1.76c-1.286.993-3.033 1.49-5.243 1.49a11.862 11.862 0 0 1-2.198-.211 13.148 13.148 0 0 1-2.155-.602v-.339-.313c0-.601-.036-1.202-.107-1.8a17.875 17.875 0 0 0-.342-1.892l1.262-.31c.29 1.406.765 2.389 1.415 2.965.65.576 1.625.847 2.912.847a3.967 3.967 0 0 0 2.502-.729c.291-.212.525-.49.683-.812.158-.322.235-.677.223-1.034 0-1.101-1.062-2.021-3.185-2.761-.471-.16-.83-.288-1.074-.377-1.465-.542-2.517-1.173-3.156-1.893a3.898 3.898 0 0 1-.953-2.693 4.319 4.319 0 0 1 .43-2.001 4.366 4.366 0 0 1 1.306-1.586c1.137-.91 2.673-1.363 4.575-1.363a11.84 11.84 0 0 1 2.006.178 16.23 16.23 0 0 1 2.198.554z"/>
        <path fill="#DBC27D" d="M5-.102H0v17h5v-17z"/>
    </g>
    <defs>
        <clipPath id="a">
            <path fill="#fff" d="M0 0h146v17H0z"/>
        </clipPath>
    </defs>
</svg>
