<svg width="20" height="20" viewBox="0 0 20 20" fill="none" xmlns="http://www.w3.org/2000/svg">
<path d="M9.86613 0.238037C12.4878 0.238037 12.815 0.247686 13.8436 0.295933C14.8712 0.34418 15.5708 0.505324 16.1864 0.744627C16.8233 0.98972 17.3598 1.32166 17.8963 1.85719C18.387 2.33956 18.7666 2.92305 19.0089 3.56706C19.2472 4.18172 19.4093 4.88226 19.4576 5.90991C19.5029 6.93853 19.5155 7.26564 19.5155 9.88737C19.5155 12.5091 19.5058 12.8362 19.4576 13.8648C19.4093 14.8925 19.2472 15.592 19.0089 16.2077C18.7673 16.852 18.3876 17.4357 17.8963 17.9175C17.4138 18.408 16.8303 18.7877 16.1864 19.0301C15.5718 19.2684 14.8712 19.4306 13.8436 19.4788C12.815 19.5242 12.4878 19.5367 9.86613 19.5367C7.2444 19.5367 6.91729 19.527 5.88867 19.4788C4.86102 19.4306 4.16144 19.2684 3.54582 19.0301C2.90155 18.7884 2.31796 18.4086 1.83595 17.9175C1.3452 17.4353 0.965519 16.8517 0.723387 16.2077C0.484083 15.593 0.322939 14.8925 0.274693 13.8648C0.229341 12.8362 0.216797 12.5091 0.216797 9.88737C0.216797 7.26564 0.226446 6.93853 0.274693 5.90991C0.322939 4.88129 0.484083 4.18268 0.723387 3.56706C0.964848 2.92265 1.34461 2.33901 1.83595 1.85719C2.3181 1.36627 2.90165 0.986564 3.54582 0.744627C4.16144 0.505324 4.86005 0.34418 5.88867 0.295933C6.91729 0.250581 7.2444 0.238037 9.86613 0.238037ZM9.86613 5.0627C8.58654 5.0627 7.35937 5.57101 6.45457 6.47581C5.54977 7.38061 5.04146 8.60779 5.04146 9.88737C5.04146 11.1669 5.54977 12.3941 6.45457 13.2989C7.35937 14.2037 8.58654 14.712 9.86613 14.712C11.1457 14.712 12.3729 14.2037 13.2777 13.2989C14.1825 12.3941 14.6908 11.1669 14.6908 9.88737C14.6908 8.60779 14.1825 7.38061 13.2777 6.47581C12.3729 5.57101 11.1457 5.0627 9.86613 5.0627ZM16.1382 4.82147C16.1382 4.50157 16.0111 4.19478 15.7849 3.96858C15.5587 3.74238 15.2519 3.6153 14.932 3.6153C14.6121 3.6153 14.3053 3.74238 14.0791 3.96858C13.8529 4.19478 13.7259 4.50157 13.7259 4.82147C13.7259 5.14136 13.8529 5.44816 14.0791 5.67436C14.3053 5.90056 14.6121 6.02763 14.932 6.02763C15.2519 6.02763 15.5587 5.90056 15.7849 5.67436C16.0111 5.44816 16.1382 5.14136 16.1382 4.82147ZM9.86613 6.99257C10.6339 6.99257 11.3702 7.29755 11.9131 7.84043C12.4559 8.38331 12.7609 9.11962 12.7609 9.88737C12.7609 10.6551 12.4559 11.3914 11.9131 11.9343C11.3702 12.4772 10.6339 12.7822 9.86613 12.7822C9.09838 12.7822 8.36207 12.4772 7.81919 11.9343C7.27631 11.3914 6.97133 10.6551 6.97133 9.88737C6.97133 9.11962 7.27631 8.38331 7.81919 7.84043C8.36207 7.29755 9.09838 6.99257 9.86613 6.99257Z" fill="#E5E5E5"/>
</svg>
