<svg width="21" height="19" viewBox="0 0 21 19" fill="none" xmlns="http://www.w3.org/2000/svg">
<path d="M1.9361 2.51758C1.02539 2.51758 0.287109 3.25586 0.287109 4.16657C0.287109 5.07728 1.02539 5.81556 1.9361 5.81556C2.84682 5.81556 3.58509 5.07728 3.58509 4.16657C3.58509 3.25586 2.84682 2.51758 1.9361 2.51758Z" fill="#E5E5E5"/>
<path d="M0.384109 7.17356C0.330538 7.17356 0.287109 7.21699 0.287109 7.27056V17.3585C0.287109 17.4121 0.330538 17.4555 0.384109 17.4555H3.4881C3.54167 17.4555 3.58509 17.4121 3.58509 17.3585V7.27056C3.58509 7.21699 3.54167 7.17356 3.4881 7.17356H0.384109Z" fill="#E5E5E5"/>
<path d="M5.42809 7.17356C5.37452 7.17356 5.33109 7.21699 5.33109 7.27056V17.3585C5.33109 17.4121 5.37452 17.4555 5.42809 17.4555H8.53207C8.58564 17.4555 8.62907 17.4121 8.62907 17.3585V11.9265C8.62907 11.5406 8.78237 11.1706 9.05523 10.8977C9.32809 10.6248 9.69818 10.4715 10.0841 10.4715C10.47 10.4715 10.84 10.6248 11.1129 10.8977C11.3858 11.1706 11.5391 11.5406 11.5391 11.9265V17.3585C11.5391 17.4121 11.5825 17.4555 11.6361 17.4555H14.74C14.7936 17.4555 14.837 17.4121 14.837 17.3585V10.6696C14.837 8.78647 13.1992 7.31323 11.3255 7.48357C10.7477 7.5361 10.1764 7.67975 9.64289 7.90838L8.62907 8.34288V7.27056C8.62907 7.21699 8.58564 7.17356 8.53207 7.17356H5.42809Z" fill="#E5E5E5"/>
</svg>
