<svg xmlns="http://www.w3.org/2000/svg" width="92" height="92" fill="none" viewBox="0 0 92 92">
    <circle cx="46" cy="46" r="46" fill="#4A4A4A"/>
    <g fill="#fff" clip-path="url(#a)">
        <path d="M71.554 45.336l-7.18-11.088a2.996 2.996 0 0 0-2.524-1.373H30.17a2.996 2.996 0 0 0-2.523 1.37l-7.202 11.089a3.014 3.014 0 0 0 .276 3.638l23.03 25.856a3.01 3.01 0 0 0 4.49 0l23.035-25.857a3.014 3.014 0 0 0 .278-3.635zm-11.159-9.883l-6.038 9.338-6.043-9.338h12.081zm-8.408 10.422h-11.98l5.99-9.258 5.99 9.258zM43.68 35.453l-6.026 9.313-6.024-9.313h12.05zm-14.433 1.062l6.054 9.36H23.167l6.08-9.36zm-5.535 11.938h12.973l6.86 22.267-19.834-22.267zm22.285 21.469l-6.614-21.469H52.61l-6.614 21.469zm2.452.799l6.86-22.267h12.975L48.449 70.72zm8.277-24.846l6.049-9.354 6.057 9.354H56.726zM16.91 45.875h-2.62a1.29 1.29 0 1 0 0 2.578h2.62a1.29 1.29 0 0 0 0-2.578zM77.71 45.875h-2.62a1.29 1.29 0 1 0 0 2.578h2.62a1.29 1.29 0 0 0 0-2.578zM69.35 23.837a1.29 1.29 0 0 0-1.823 0l-4.282 4.282a1.29 1.29 0 1 0 1.823 1.823l4.282-4.282a1.29 1.29 0 0 0 0-1.823zM28.81 28.096l-4.282-4.283a1.29 1.29 0 0 0-1.823 1.823l4.282 4.282a1.286 1.286 0 0 0 1.823 0 1.289 1.289 0 0 0 0-1.822zM46.032 14.165a1.29 1.29 0 0 0-1.289 1.289v8.4a1.289 1.289 0 1 0 2.578 0v-8.4a1.29 1.29 0 0 0-1.289-1.29zM46.943 27.303a1.298 1.298 0 0 0-.911-.377c-.34 0-.672.138-.912.378s-.377.572-.377.91c0 .341.137.672.377.912a1.293 1.293 0 0 0 2.2-.911c0-.34-.136-.672-.377-.912z"/>
    </g>
    <defs>
        <clipPath id="a">
            <path fill="#fff" d="M13 12h66v66H13z"/>
        </clipPath>
    </defs>
</svg>
