<svg xmlns="http://www.w3.org/2000/svg" width="92" height="92" fill="none" viewBox="0 0 92 92">
    <circle cx="46" cy="46" r="46" fill="#4A4A4A"/>
    <g clip-path="url(#a)">
        <path stroke="#fff" stroke-width="1.46" d="M90.285 15.098l-5.822-.76-1.051-.137.503-.933a3.679 3.679 0 0 0-.633-4.34 3.639 3.639 0 0 0-2.595-1.076h-.002c-.577.001-1.13.133-1.628.381l-.916.455-.133-1.014-.76-5.825a1.271 1.271 0 0 0-.858-1.05 1.272 1.272 0 0 0-1.32.309l-8.3 8.3-.517-.517.517.516c-.29.29-.425.707-.36 1.11v.001l1.343 8.356.059.368-.263.264-.384.385-.454.455-.508-.393c-5.653-4.357-12.543-6.72-19.802-6.72-6.821 0-13.348 2.088-18.88 6.038a.428.428 0 1 0 .499.697c5.384-3.846 11.742-5.879 18.38-5.879a31.497 31.497 0 0 1 19.025 6.37l.67.505-.592.594-4.702 4.717-.432.434-.502-.35A23.479 23.479 0 0 0 46.4 22.132c-13.023 0-23.62 10.596-23.62 23.62 0 13.023 10.597 23.619 23.62 23.619 13.023 0 23.62-10.596 23.62-23.62 0-4.944-1.53-9.536-4.137-13.334l-.343-.5.428-.428 4.708-4.725.597-.598.505.677a31.498 31.498 0 0 1 6.284 18.909c0 17.459-14.203 31.661-31.662 31.661-17.46 0-31.662-14.202-31.662-31.661a31.605 31.605 0 0 1 8.07-21.117.43.43 0 0 0-.638-.572 32.457 32.457 0 0 0-8.289 21.689c0 8.687 3.382 16.85 9.525 22.994C29.55 74.889 37.713 78.27 46.4 78.27c8.687 0 16.851-3.381 22.994-9.524 6.143-6.143 9.525-14.307 9.525-22.994 0-7.215-2.335-14.065-6.642-19.698l-.387-.506.45-.452.294-.296.264-.264.369.059 8.346 1.341a1.296 1.296 0 0 0 1.008-.265 1.89 1.89 0 0 1-.33-.264h-.001a1.896 1.896 0 0 1-.268-.338l-.056.056-.368-.059-6.514-1.047-1.41-.227 1.01-1.01 7.58-7.58.254-.253.356.046 6.688.872 1.47.192-1.048 1.048-4.782 4.782a1.896 1.896 0 0 1 .606.606l5.217-5.217-.74-2.18zm0 0c.49.063.89.39 1.049.859m-1.049-.86l1.049.86m-7.404 8.417l.578-.579h.001a.428.428 0 0 0-.606-.606l.026 1.185zm0 0a.429.429 0 0 1-.607-.605h.001l.578-.58.028 1.185zM82.678 13.51a2.816 2.816 0 0 0-1.992-4.8h-.002a2.8 2.8 0 0 0-1.99.827L45.367 42.975a2.817 2.817 0 0 0 .002 3.975 2.8 2.8 0 0 0 1.99.824h.002c.75 0 1.46-.295 1.99-.827L82.68 13.51zm0 0l-.517-.515m.517.515l-.517-.515m0 0a2.086 2.086 0 0 0-1.475-3.555h-.001l1.476 3.555zm9.171 2.963c.16.468.043.97-.307 1.32l.308-1.32zM76.48 2.57l-.192-1.47-1.049 1.048-7.754 7.754-.263.264.059.368 1.047 6.513.227 1.41 1.01-1.01 7.58-7.579.254-.254-.047-.356-.872-6.688zm-17.34 25.372l.626-.629-.737-.493A22.634 22.634 0 0 0 46.4 22.989c-12.552 0-22.763 10.21-22.763 22.763 0 12.551 10.21 22.762 22.763 22.762 12.552 0 22.762-10.21 22.762-22.762 0-4.604-1.374-8.893-3.732-12.479l-.494-.75-.633.636L59.479 38l-.382.383.255.476a14.58 14.58 0 0 1 1.725 6.893c0 8.09-6.584 14.675-14.676 14.675s-14.676-6.584-14.676-14.675c0-8.092 6.584-14.677 14.676-14.677 2.558 0 4.964.66 7.06 1.817l.481.265.388-.39 4.809-4.824z"/>
    </g>
    <defs>
        <clipPath id="a">
            <path fill="#fff" d="M13 0h79v79H13z"/>
        </clipPath>
    </defs>
</svg>
