<svg xmlns="http://www.w3.org/2000/svg" width="92" height="92" fill="none" viewBox="0 0 92 92">
    <circle cx="46" cy="46" r="46" fill="#4A4A4A"/>
    <g fill="#fff" clip-path="url(#a)">
        <path d="M63.955 55.194c-1.217-2.537-5.57-6.058-9.776-9.46-2.345-1.896-4.562-3.689-5.975-5.102a1.291 1.291 0 0 0-1.351-.302c-.87.315-1.408.558-1.832.746-.645.29-.862.388-1.733.476a1.291 1.291 0 0 0-.945.565c-1.827 2.73-3.718 2.498-4.981 2.075-.403-.135-.476-.308-.514-.473-.271-1.134 1.09-3.774 2.854-5.539 4.198-4.2 6.363-5.252 10.936-3.208 5.187 2.32 10.385 4.136 10.436 4.154a1.29 1.29 0 0 0 1.646-.796 1.294 1.294 0 0 0-.796-1.645c-.052-.018-5.146-1.798-10.23-4.074-5.924-2.648-9.173-.904-13.816 3.74-1.767 1.767-4.167 5.343-3.547 7.965.266 1.116 1.052 1.942 2.22 2.327 2.926.967 5.597.042 7.587-2.598.821-.127 1.268-.313 1.94-.615.242-.109.527-.235.904-.388 1.478 1.387 3.472 3.002 5.572 4.7 3.798 3.07 8.104 6.553 9.073 8.568.478.995-.036 1.643-.385 1.94-.512.44-1.212.579-1.591.313a1.293 1.293 0 0 0-2.018 1.201c.088.822-.664 1.292-.99 1.455-.826.418-1.689.346-2.012.046a1.29 1.29 0 1 0-2.167.824c-.078.847-.706 1.661-1.524 1.979-.396.15-.97.24-1.483-.23-.32-.29-.765-.4-1.18-.3a1.29 1.29 0 0 0-.908.814c-.049.13-.16.44-1.369.44-.86 0-2.407-.582-3.164-1.083-.907-.597-6.593-4.839-11.504-8.952-.69-.58-1.883-1.826-2.937-2.926-.935-.977-1.79-1.863-2.23-2.235a1.285 1.285 0 0 0-1.82.153 1.293 1.293 0 0 0 .152 1.82c.4.34 1.175 1.158 2.03 2.05 1.152 1.203 2.343 2.448 3.144 3.12 4.81 4.027 10.592 8.375 11.744 9.132.95.625 3 1.504 4.585 1.504 1.274 0 2.253-.293 2.932-.863.91.354 1.943.356 2.938-.031a5.088 5.088 0 0 0 2.689-2.483c1.018.217 2.183.065 3.242-.467 1.036-.522 1.785-1.32 2.157-2.253 1.028.054 2.087-.31 2.963-1.062 1.483-1.268 1.891-3.242 1.034-5.022z"/>
        <path d="M40.833 33.791H29.208a1.292 1.292 0 0 0 0 2.584h11.625a1.292 1.292 0 0 0 0-2.584zM67.738 52.446a1.288 1.288 0 0 0-1.793-.352l-3.776 2.537a1.293 1.293 0 0 0 1.441 2.144l3.777-2.536a1.293 1.293 0 0 0 .351-1.793zM59.72 58.61c-.925-.73-5.061-4.963-7.619-7.63a1.288 1.288 0 0 0-1.826-.038 1.29 1.29 0 0 0-.039 1.826c.664.693 6.52 6.797 7.882 7.872.235.186.52.276.798.276a1.29 1.29 0 0 0 .803-2.307zM54.558 61.2c-1.547-1.237-5.435-5.368-6.313-6.324a1.294 1.294 0 0 0-1.904 1.749c.046.05 4.686 5.058 6.603 6.593a1.298 1.298 0 0 0 1.816-.202 1.294 1.294 0 0 0-.202-1.816zM49.418 63.802c-1.842-1.553-5.611-5.565-6.347-6.352a1.291 1.291 0 1 0-1.889 1.764c1.06 1.134 4.665 4.957 6.57 6.564a1.289 1.289 0 0 0 1.82-.155c.46-.547.39-1.361-.154-1.821z"/>
        <path d="M30.097 31.562c-2.214-2.098-11.067-2.778-13.728-2.935A1.29 1.29 0 0 0 15 29.916v23.25c.001.713.58 1.292 1.293 1.292h7.75a1.29 1.29 0 0 0 1.227-.892c.188-.578 4.64-14.239 5.226-20.956a1.285 1.285 0 0 0-.398-1.048zm-6.998 20.312h-5.516V31.301c4.152.328 8.631 1.04 10.259 1.831-.685 5.658-3.782 15.71-4.743 18.742zM75.709 31.208c-10.143 0-15.77 2.596-16.004 2.705-.336.157-.587.45-.69.803-.103.354-.052.734.142 1.049 1.597 2.57 6.595 16.846 7.556 20.328.155.56.664.948 1.246.948h7.75c.712 0 1.291-.578 1.291-1.291V32.5a1.29 1.29 0 0 0-1.291-1.292zm-1.292 23.25h-5.492c-1.225-3.989-4.841-14.39-6.859-18.688 1.971-.669 6.205-1.819 12.351-1.963v20.65z"/>
    </g>
    <defs>
        <clipPath id="a">
            <path fill="#fff" d="M15 17h62v62H15z"/>
        </clipPath>
    </defs>
</svg>
